<?xml version="1.0" standalone="no"?><svg xmlns="http://www.w3.org/2000/svg" viewBox="0 0 1440 320"><path fill="#e7e8d1" fill-opacity="1" d="M0,128L12.6,133.3C25.3,139,51,149,76,160C101.1,171,126,181,152,181.3C176.8,181,202,171,227,165.3C252.6,160,278,160,303,170.7C328.4,181,354,203,379,213.3C404.2,224,429,224,455,213.3C480,203,505,181,531,149.3C555.8,117,581,75,606,96C631.6,117,657,203,682,218.7C707.4,235,733,181,758,160C783.2,139,808,149,834,170.7C858.9,192,884,224,909,229.3C934.7,235,960,213,985,208C1010.5,203,1036,213,1061,197.3C1086.3,181,1112,139,1137,144C1162.1,149,1187,203,1213,224C1237.9,245,1263,235,1288,240C1313.7,245,1339,267,1364,250.7C1389.5,235,1415,181,1427,154.7L1440,128L1440,320L1427.4,320C1414.7,320,1389,320,1364,320C1338.9,320,1314,320,1288,320C1263.2,320,1238,320,1213,320C1187.4,320,1162,320,1137,320C1111.6,320,1086,320,1061,320C1035.8,320,1011,320,985,320C960,320,935,320,909,320C884.2,320,859,320,834,320C808.4,320,783,320,758,320C732.6,320,707,320,682,320C656.8,320,632,320,606,320C581.1,320,556,320,531,320C505.3,320,480,320,455,320C429.5,320,404,320,379,320C353.7,320,328,320,303,320C277.9,320,253,320,227,320C202.1,320,177,320,152,320C126.3,320,101,320,76,320C50.5,320,25,320,13,320L0,320Z"></path></svg>